HIERARCHY
ROOT Hips
{
 OFFSET 0.000000 0.000000 0.000000
 CHANNELS 6 Xposition Yposition Zposition Yrotation Xrotation Zrotation
 JOINT Chest
 {
  OFFSET 0.000000 9.588913 -0.003946
  CHANNELS 3 Yrotation Xrotation Zrotation
  JOINT Chest2
  {
   OFFSET 0.000000 9.541882 0.008053
   CHANNELS 3 Yrotation Xrotation Zrotation
   JOINT Chest3
   {
    OFFSET 0.000000 9.501360 0.000000
    CHANNELS 3 Yrotation Xrotation Zrotation
    JOINT Chest4
    {
     OFFSET 0.000000 9.491660 0.000000
     CHANNELS 3 Yrotation Xrotation Zrotation
     JOINT Neck
     {
      OFFSET 0.000000 14.331917 0.000000
      CHANNELS 3 Yrotation Xrotation Zrotation
      JOINT Head
      {
       OFFSET 0.000000 8.884799 0.017034
       CHANNELS 3 Yrotation Xrotation Zrotation
       End Site
       {
        OFFSET 0.000000 16.896195 0.008993
       }
      }
     }
     JOINT RightCollar
     {
      OFFSET -2.923010 9.499495 0.000000
      CHANNELS 3 Yrotation Xrotation Zrotation
      JOINT RightShoulder
      {
       OFFSET -13.795216 0.000000 0.000000
       CHANNELS 3 Yrotation Xrotation Zrotation
       JOINT RightElbow
       {
        OFFSET -30.272209 0.000000 0.000000
        CHANNELS 3 Yrotation Xrotation Zrotation
        JOINT RightWrist
        {
         OFFSET -24.478199 0.000000 0.000000
         CHANNELS 3 Yrotation Xrotation Zrotation
         End Site
         {
          OFFSET -18.090752 0.000000 0.000000
         }
        }
       }
      }
     }
     JOINT LeftCollar
     {
      OFFSET 2.923010 9.499495 0.000000
      CHANNELS 3 Yrotation Xrotation Zrotation
      JOINT LeftShoulder
      {
       OFFSET 13.795216 0.000000 0.000000
       CHANNELS 3 Yrotation Xrotation Zrotation
       JOINT LeftElbow
       {
        OFFSET 30.272209 0.000000 0.000000
        CHANNELS 3 Yrotation Xrotation Zrotation
        JOINT LeftWrist
        {
         OFFSET 24.478199 0.000000 0.000000
         CHANNELS 3 Yrotation Xrotation Zrotation
         End Site
         {
          OFFSET 18.090752 0.000000 0.000000
         }
        }
       }
      }
     }
    }
   }
  }
 }
 JOINT RightHip
 {
  OFFSET -7.826875 0.019532 0.001973
  CHANNELS 3 Yrotation Xrotation Zrotation
  JOINT RightKnee
  {
   OFFSET 0.000000 -40.546152 -0.001885
   CHANNELS 3 Yrotation Xrotation Zrotation
   JOINT RightAnkle
   {
    OFFSET 0.000000 -39.417092 -0.003189
    CHANNELS 3 Yrotation Xrotation Zrotation
    JOINT RightToe
    {
     OFFSET 0.000000 -7.579396 17.243563
     CHANNELS 3 Yrotation Xrotation Zrotation
     End Site
     {
      OFFSET 0.000000 -1.500329 6.694466
     }
    }
   }
  }
 }
 JOINT LeftHip
 {
  OFFSET 7.826875 0.019532 0.001973
  CHANNELS 3 Yrotation Xrotation Zrotation
  JOINT LeftKnee
  {
   OFFSET 0.000000 -40.546152 -0.001885
   CHANNELS 3 Yrotation Xrotation Zrotation
   JOINT LeftAnkle
   {
    OFFSET 0.000000 -39.417092 -0.003189
    CHANNELS 3 Yrotation Xrotation Zrotation
    JOINT LeftToe
    {
     OFFSET 0.000000 -7.579396 17.243563
     CHANNELS 3 Yrotation Xrotation Zrotation
     End Site
     {
      OFFSET 0.000000 -1.500329 6.694466
     }
    }
   }
  }
 }
}
MOTION
Frames: 5
Frame Time: 0.008333
-3.911134 89.246836 -8.632834 176.652582 -8.327786 -0.787936 2.671760 2.297598 -0.760639 1.499784 1.311083 -0.378577 1.873496 1.640365 -0.467878 1.499784 1.311083 -0.378577 -1.555797 17.307530 -0.639070 -1.489283 -7.529705 -0.318528 12.897046 -2.927434 -5.613033 -10.231929 -43.038751 72.313344 63.142356 -33.303194 36.489937 18.190656 -17.650245 -10.634729 -13.331993 -4.391485 4.534620 15.943837 -44.707195 -92.190600 -41.686459 -28.198902 -58.570573 -19.506898 -13.779003 13.957472 -9.047193 9.022197 1.070690 5.484197 3.835028 0.343068 5.645938 -4.345226 -1.830697 -0.003230 -0.179130 0.002068 10.673110 6.791536 1.500828 -4.715328 2.925431 -0.562868 -2.898449 -2.823582 0.789950 0.010593 0.140531 -0.003556
-3.886631 89.247514 -8.659797 176.663950 -8.305135 -0.777572 2.665517 2.291599 -0.783498 1.497278 1.308183 -0.391815 1.870319 1.636792 -0.484447 1.497278 1.308183 -0.391815 -1.558489 17.317881 -0.633836 -1.493372 -7.518423 -0.312442 13.100123 -2.916627 -5.804095 -9.719399 -43.894761 71.960306 62.761429 -33.621842 35.835524 18.204577 -17.826696 -10.609452 -13.545231 -4.274529 4.786449 15.985973 -45.793734 -92.500449 -40.924001 -28.307860 -58.289866 -19.729059 -13.940978 13.979644 -9.058838 9.026396 1.073964 5.476941 3.819108 0.343856 5.649954 -4.349262 -1.845957 -0.002764 -0.182892 0.000658 10.674123 6.793037 1.505006 -4.719839 2.917948 -0.560205 -2.901660 -2.832234 0.771743 0.009641 0.134817 -0.002080
-3.861574 89.248241 -8.688037 176.671114 -8.277845 -0.766947 2.659514 2.283984 -0.807307 1.494980 1.304076 -0.405083 1.867402 1.631710 -0.501058 1.494980 1.304076 -0.405083 -1.559412 17.328442 -0.629031 -1.495501 -7.506940 -0.307206 13.300726 -2.901066 -6.001672 -9.198733 -44.728695 71.594540 62.350327 -33.980969 35.205452 18.196558 -18.012529 -10.551283 -13.734437 -4.159692 5.052095 16.014237 -46.860283 -92.807736 -40.165452 -28.436547 -57.994427 -19.904299 -14.101366 13.971432 -9.068021 9.026455 1.079074 5.468296 3.803815 0.345113 5.651459 -4.352835 -1.861325 -0.002915 -0.187344 -0.001499 10.681299 6.790919 1.508926 -4.726351 2.910345 -0.556806 -2.905120 -2.840687 0.753111 0.008559 0.128420 -0.001138
-3.835995 89.248779 -8.717280 176.678086 -8.243606 -0.756414 2.653382 2.272983 -0.830547 1.492655 1.297862 -0.417475 1.864458 1.623989 -0.516581 1.492655 1.297862 -0.417475 -1.557835 17.339290 -0.626364 -1.494513 -7.495183 -0.304782 13.496484 -2.878987 -6.207144 -8.664156 -45.542123 71.211602 61.928206 -34.367283 34.589015 18.182754 -18.187259 -10.487554 -13.901838 -4.048307 5.324908 15.990265 -47.909398 -93.080902 -39.412311 -28.611877 -57.679303 -20.032409 -14.250658 13.948959 -9.076482 9.020523 1.085432 5.458898 3.788414 0.347860 5.652563 -4.356333 -1.879517 -0.003242 -0.191800 -0.002225 10.690568 6.784116 1.511373 -4.734877 2.899414 -0.550823 -2.909934 -2.847746 0.732523 0.007377 0.122495 -0.000410
-3.809874 89.248946 -8.747566 176.688509 -8.202114 -0.746419 2.646396 2.259471 -0.852162 1.489807 1.290156 -0.428945 1.860864 1.614401 -0.530960 1.489807 1.290156 -0.428945 -1.554838 17.348286 -0.626915 -1.491289 -7.485454 -0.306054 13.682224 -2.855146 -6.419020 -8.117275 -46.339693 70.812559 61.504371 -34.759127 33.983133 18.184450 -18.341546 -10.442623 -14.059090 -3.947837 5.598269 15.917526 -48.934396 -93.312924 -38.665992 -28.833548 -57.353295 -20.118622 -14.385387 13.923397 -9.086552 9.007608 1.092850 5.449754 3.774788 0.349921 5.658970 -4.361401 -1.898439 -0.002781 -0.195970 -0.001809 10.699884 6.772403 1.514218 -4.746406 2.884365 -0.545974 -2.916834 -2.854041 0.712637 0.006130 0.118071 -0.000451
